<?xml version="1.0" encoding="UTF-8" standalone="no"?><svg xmlns="http://www.w3.org/2000/svg" xmlns:xlink="http://www.w3.org/1999/xlink" width="500" zoomAndPan="magnify" viewBox="0 0 375 374.999991" height="500" preserveAspectRatio="xMidYMid meet" version="1.0"><defs><g/></defs><g fill="#56c8e6" fill-opacity="1"><g transform="translate(104.071286, 148.954963)"><g><path d="M 12.078125 0.375 C 8.640625 0.375 6.03125 -0.550781 4.25 -2.40625 C 2.476562 -4.269531 1.59375 -6.9375 1.59375 -10.40625 C 1.59375 -13.894531 2.550781 -16.597656 4.46875 -18.515625 C 6.382812 -20.429688 9.113281 -21.390625 12.65625 -21.390625 C 15.09375 -21.390625 17.382812 -20.859375 19.53125 -19.796875 L 17.40625 -14.4375 C 16.53125 -14.820312 15.71875 -15.128906 14.96875 -15.359375 C 14.226562 -15.585938 13.457031 -15.703125 12.65625 -15.703125 C 11.476562 -15.703125 10.566406 -15.242188 9.921875 -14.328125 C 9.285156 -13.410156 8.96875 -12.117188 8.96875 -10.453125 C 8.96875 -7.085938 10.207031 -5.40625 12.6875 -5.40625 C 14.820312 -5.40625 16.863281 -6.019531 18.8125 -7.25 L 18.8125 -1.484375 C 16.945312 -0.242188 14.703125 0.375 12.078125 0.375 Z M 12.078125 0.375 "/></g></g></g><g fill="#56c8e6" fill-opacity="1"><g transform="translate(124.551448, 148.954963)"><g><path d="M 15.734375 0 L 15.734375 -11.46875 C 15.734375 -14.289062 14.898438 -15.703125 13.234375 -15.703125 C 12.046875 -15.703125 11.171875 -15.203125 10.609375 -14.203125 C 10.046875 -13.203125 9.765625 -11.546875 9.765625 -9.234375 L 9.765625 0 L 2.5 0 L 2.5 -28.875 L 9.765625 -28.875 L 9.765625 -24.765625 C 9.765625 -22.910156 9.664062 -20.796875 9.46875 -18.421875 L 9.796875 -18.421875 C 10.492188 -19.515625 11.316406 -20.28125 12.265625 -20.71875 C 13.210938 -21.164062 14.320312 -21.390625 15.59375 -21.390625 C 17.9375 -21.390625 19.757812 -20.710938 21.0625 -19.359375 C 22.375 -18.003906 23.03125 -16.109375 23.03125 -13.671875 L 23.03125 0 Z M 15.734375 0 "/></g></g></g><g fill="#56c8e6" fill-opacity="1"><g transform="translate(150.003244, 148.954963)"><g><path d="M 16.21875 0 L 14.828125 -2.78125 L 14.671875 -2.78125 C 13.703125 -1.570312 12.707031 -0.742188 11.6875 -0.296875 C 10.675781 0.148438 9.363281 0.375 7.75 0.375 C 5.769531 0.375 4.210938 -0.21875 3.078125 -1.40625 C 1.941406 -2.59375 1.375 -4.265625 1.375 -6.421875 C 1.375 -8.660156 2.148438 -10.328125 3.703125 -11.421875 C 5.265625 -12.515625 7.523438 -13.128906 10.484375 -13.265625 L 13.984375 -13.375 L 13.984375 -13.671875 C 13.984375 -15.398438 13.132812 -16.265625 11.4375 -16.265625 C 9.894531 -16.265625 7.941406 -15.75 5.578125 -14.71875 L 3.484375 -19.5 C 5.929688 -20.757812 9.023438 -21.390625 12.765625 -21.390625 C 15.460938 -21.390625 17.550781 -20.722656 19.03125 -19.390625 C 20.507812 -18.054688 21.25 -16.1875 21.25 -13.78125 L 21.25 0 Z M 10.84375 -4.75 C 11.71875 -4.75 12.46875 -5.023438 13.09375 -5.578125 C 13.71875 -6.140625 14.03125 -6.863281 14.03125 -7.75 L 14.03125 -9.390625 L 12.359375 -9.3125 C 9.972656 -9.226562 8.78125 -8.351562 8.78125 -6.6875 C 8.78125 -5.394531 9.46875 -4.75 10.84375 -4.75 Z M 10.84375 -4.75 "/></g></g></g><g fill="#56c8e6" fill-opacity="1"><g transform="translate(173.674156, 148.954963)"><g><path d="M 15.203125 -21.390625 C 15.828125 -21.390625 16.425781 -21.34375 17 -21.25 L 17.40625 -21.171875 L 16.75 -14.328125 C 16.15625 -14.472656 15.332031 -14.546875 14.28125 -14.546875 C 12.695312 -14.546875 11.546875 -14.179688 10.828125 -13.453125 C 10.117188 -12.734375 9.765625 -11.691406 9.765625 -10.328125 L 9.765625 0 L 2.5 0 L 2.5 -21.015625 L 7.90625 -21.015625 L 9.03125 -17.671875 L 9.390625 -17.671875 C 9.992188 -18.773438 10.835938 -19.671875 11.921875 -20.359375 C 13.003906 -21.046875 14.097656 -21.390625 15.203125 -21.390625 Z M 15.203125 -21.390625 "/></g></g></g><g fill="#56c8e6" fill-opacity="1"><g transform="translate(191.501544, 148.954963)"><g><path d="M 9.765625 0 L 2.5 0 L 2.5 -28.875 L 9.765625 -28.875 Z M 9.765625 0 "/></g></g></g><g fill="#56c8e6" fill-opacity="1"><g transform="translate(203.782221, 148.954963)"><g><path d="M 12.796875 -5.359375 C 13.773438 -5.359375 14.945312 -5.601562 16.3125 -6.09375 L 16.3125 -0.796875 C 15.332031 -0.378906 14.398438 -0.0820312 13.515625 0.09375 C 12.628906 0.28125 11.59375 0.375 10.40625 0.375 C 7.96875 0.375 6.210938 -0.21875 5.140625 -1.40625 C 4.066406 -2.601562 3.53125 -4.441406 3.53125 -6.921875 L 3.53125 -15.59375 L 0.984375 -15.59375 L 0.984375 -18.53125 L 4.21875 -20.8125 L 6.09375 -25.234375 L 10.84375 -25.234375 L 10.84375 -21.015625 L 16 -21.015625 L 16 -15.59375 L 10.84375 -15.59375 L 10.84375 -7.40625 C 10.84375 -6.039062 11.492188 -5.359375 12.796875 -5.359375 Z M 12.796875 -5.359375 "/></g></g></g><g fill="#56c8e6" fill-opacity="1"><g transform="translate(221.257142, 148.954963)"><g><path d="M 22.578125 -10.5625 C 22.578125 -7.125 21.648438 -4.441406 19.796875 -2.515625 C 17.953125 -0.585938 15.367188 0.375 12.046875 0.375 C 8.847656 0.375 6.304688 -0.609375 4.421875 -2.578125 C 2.535156 -4.546875 1.59375 -7.207031 1.59375 -10.5625 C 1.59375 -13.988281 2.515625 -16.648438 4.359375 -18.546875 C 6.210938 -20.441406 8.8125 -21.390625 12.15625 -21.390625 C 14.21875 -21.390625 16.039062 -20.953125 17.625 -20.078125 C 19.207031 -19.203125 20.425781 -17.941406 21.28125 -16.296875 C 22.144531 -14.660156 22.578125 -12.75 22.578125 -10.5625 Z M 8.96875 -10.5625 C 8.96875 -8.75 9.207031 -7.367188 9.6875 -6.421875 C 10.164062 -5.484375 10.972656 -5.015625 12.109375 -5.015625 C 13.242188 -5.015625 14.039062 -5.484375 14.5 -6.421875 C 14.96875 -7.367188 15.203125 -8.75 15.203125 -10.5625 C 15.203125 -12.351562 14.960938 -13.707031 14.484375 -14.625 C 14.015625 -15.539062 13.210938 -16 12.078125 -16 C 10.960938 -16 10.164062 -15.539062 9.6875 -14.625 C 9.207031 -13.71875 8.96875 -12.363281 8.96875 -10.5625 Z M 8.96875 -10.5625 "/></g></g></g><g fill="#56c8e6" fill-opacity="1"><g transform="translate(245.46603, 148.954963)"><g><path d="M 15.765625 0 L 15.765625 -11.46875 C 15.765625 -12.863281 15.5625 -13.914062 15.15625 -14.625 C 14.757812 -15.34375 14.117188 -15.703125 13.234375 -15.703125 C 12.003906 -15.703125 11.117188 -15.210938 10.578125 -14.234375 C 10.035156 -13.253906 9.765625 -11.578125 9.765625 -9.203125 L 9.765625 0 L 2.5 0 L 2.5 -21.015625 L 7.984375 -21.015625 L 8.890625 -18.421875 L 9.3125 -18.421875 C 9.9375 -19.410156 10.796875 -20.148438 11.890625 -20.640625 C 12.984375 -21.140625 14.238281 -21.390625 15.65625 -21.390625 C 17.988281 -21.390625 19.800781 -20.710938 21.09375 -19.359375 C 22.382812 -18.015625 23.03125 -16.117188 23.03125 -13.671875 L 23.03125 0 Z M 15.765625 0 "/></g></g></g><g fill="#ffffff" fill-opacity="1"><g transform="translate(107.131463, 182.199979)"><g><path d="M 4.46875 0 L 0 -11.78125 L 1.90625 -11.78125 L 4.453125 -4.796875 C 5.023438 -3.160156 5.359375 -2.097656 5.453125 -1.609375 L 5.546875 -1.609375 C 5.617188 -1.992188 5.863281 -2.78125 6.28125 -3.96875 C 6.707031 -5.164062 7.648438 -7.769531 9.109375 -11.78125 L 11.015625 -11.78125 L 6.546875 0 Z M 4.46875 0 "/></g></g></g><g fill="#ffffff" fill-opacity="1"><g transform="translate(118.15099, 182.199979)"><g><path d="M 6.859375 0.21875 C 5.117188 0.21875 3.742188 -0.3125 2.734375 -1.375 C 1.734375 -2.4375 1.234375 -3.910156 1.234375 -5.796875 C 1.234375 -7.691406 1.703125 -9.195312 2.640625 -10.3125 C 3.578125 -11.425781 4.832031 -11.984375 6.40625 -11.984375 C 7.875 -11.984375 9.035156 -11.5 9.890625 -10.53125 C 10.753906 -9.5625 11.1875 -8.28125 11.1875 -6.6875 L 11.1875 -5.5625 L 3.078125 -5.5625 C 3.117188 -4.175781 3.46875 -3.125 4.125 -2.40625 C 4.789062 -1.695312 5.722656 -1.34375 6.921875 -1.34375 C 8.191406 -1.34375 9.445312 -1.609375 10.6875 -2.140625 L 10.6875 -0.546875 C 10.0625 -0.273438 9.46875 -0.0820312 8.90625 0.03125 C 8.34375 0.15625 7.660156 0.21875 6.859375 0.21875 Z M 6.375 -10.5 C 5.4375 -10.5 4.6875 -10.1875 4.125 -9.5625 C 3.5625 -8.945312 3.226562 -8.097656 3.125 -7.015625 L 9.28125 -7.015625 C 9.28125 -8.140625 9.03125 -9 8.53125 -9.59375 C 8.03125 -10.195312 7.3125 -10.5 6.375 -10.5 Z M 6.375 -10.5 "/></g></g></g><g fill="#ffffff" fill-opacity="1"><g transform="translate(130.491577, 182.199979)"><g><path d="M 9.953125 0 L 9.953125 -7.609375 C 9.953125 -8.578125 9.734375 -9.296875 9.296875 -9.765625 C 8.859375 -10.234375 8.171875 -10.46875 7.234375 -10.46875 C 5.992188 -10.46875 5.085938 -10.128906 4.515625 -9.453125 C 3.953125 -8.785156 3.671875 -7.6875 3.671875 -6.15625 L 3.671875 0 L 1.890625 0 L 1.890625 -16.71875 L 3.671875 -16.71875 L 3.671875 -11.65625 C 3.671875 -11.050781 3.644531 -10.546875 3.59375 -10.140625 L 3.703125 -10.140625 C 4.046875 -10.703125 4.539062 -11.144531 5.1875 -11.46875 C 5.84375 -11.800781 6.582031 -11.96875 7.40625 -11.96875 C 8.851562 -11.96875 9.9375 -11.625 10.65625 -10.9375 C 11.375 -10.257812 11.734375 -9.175781 11.734375 -7.6875 L 11.734375 0 Z M 9.953125 0 "/></g></g></g><g fill="#ffffff" fill-opacity="1"><g transform="translate(143.992114, 182.199979)"><g><path d="M 3.671875 0 L 1.890625 0 L 1.890625 -11.78125 L 3.671875 -11.78125 Z M 1.734375 -14.96875 C 1.734375 -15.375 1.832031 -15.671875 2.03125 -15.859375 C 2.238281 -16.046875 2.492188 -16.140625 2.796875 -16.140625 C 3.078125 -16.140625 3.320312 -16.039062 3.53125 -15.84375 C 3.738281 -15.65625 3.84375 -15.363281 3.84375 -14.96875 C 3.84375 -14.5625 3.738281 -14.257812 3.53125 -14.0625 C 3.320312 -13.863281 3.078125 -13.765625 2.796875 -13.765625 C 2.492188 -13.765625 2.238281 -13.863281 2.03125 -14.0625 C 1.832031 -14.257812 1.734375 -14.5625 1.734375 -14.96875 Z M 1.734375 -14.96875 "/></g></g></g><g fill="#ffffff" fill-opacity="1"><g transform="translate(149.555579, 182.199979)"><g><path d="M 6.59375 0.21875 C 4.894531 0.21875 3.578125 -0.304688 2.640625 -1.359375 C 1.703125 -2.410156 1.234375 -3.894531 1.234375 -5.8125 C 1.234375 -7.78125 1.707031 -9.300781 2.65625 -10.375 C 3.601562 -11.445312 4.957031 -11.984375 6.71875 -11.984375 C 7.28125 -11.984375 7.84375 -11.921875 8.40625 -11.796875 C 8.976562 -11.679688 9.425781 -11.539062 9.75 -11.375 L 9.203125 -9.859375 C 8.804688 -10.015625 8.375 -10.144531 7.90625 -10.25 C 7.4375 -10.351562 7.023438 -10.40625 6.671875 -10.40625 C 4.273438 -10.40625 3.078125 -8.878906 3.078125 -5.828125 C 3.078125 -4.378906 3.367188 -3.269531 3.953125 -2.5 C 4.535156 -1.726562 5.398438 -1.34375 6.546875 -1.34375 C 7.535156 -1.34375 8.546875 -1.554688 9.578125 -1.984375 L 9.578125 -0.390625 C 8.785156 0.015625 7.789062 0.21875 6.59375 0.21875 Z M 6.59375 0.21875 "/></g></g></g><g fill="#ffffff" fill-opacity="1"><g transform="translate(160.027357, 182.199979)"><g><path d="M 3.671875 0 L 1.890625 0 L 1.890625 -16.71875 L 3.671875 -16.71875 Z M 3.671875 0 "/></g></g></g><g fill="#ffffff" fill-opacity="1"><g transform="translate(165.590821, 182.199979)"><g><path d="M 6.859375 0.21875 C 5.117188 0.21875 3.742188 -0.3125 2.734375 -1.375 C 1.734375 -2.4375 1.234375 -3.910156 1.234375 -5.796875 C 1.234375 -7.691406 1.703125 -9.195312 2.640625 -10.3125 C 3.578125 -11.425781 4.832031 -11.984375 6.40625 -11.984375 C 7.875 -11.984375 9.035156 -11.5 9.890625 -10.53125 C 10.753906 -9.5625 11.1875 -8.28125 11.1875 -6.6875 L 11.1875 -5.5625 L 3.078125 -5.5625 C 3.117188 -4.175781 3.46875 -3.125 4.125 -2.40625 C 4.789062 -1.695312 5.722656 -1.34375 6.921875 -1.34375 C 8.191406 -1.34375 9.445312 -1.609375 10.6875 -2.140625 L 10.6875 -0.546875 C 10.0625 -0.273438 9.46875 -0.0820312 8.90625 0.03125 C 8.34375 0.15625 7.660156 0.21875 6.859375 0.21875 Z M 6.375 -10.5 C 5.4375 -10.5 4.6875 -10.1875 4.125 -9.5625 C 3.5625 -8.945312 3.226562 -8.097656 3.125 -7.015625 L 9.28125 -7.015625 C 9.28125 -8.140625 9.03125 -9 8.53125 -9.59375 C 8.03125 -10.195312 7.3125 -10.5 6.375 -10.5 Z M 6.375 -10.5 "/></g></g></g><g fill="#ffffff" fill-opacity="1"><g transform="translate(177.931408, 182.199979)"><g/></g></g><g fill="#ffffff" fill-opacity="1"><g transform="translate(183.645237, 182.199979)"><g><path d="M 7.265625 -11.984375 C 7.785156 -11.984375 8.253906 -11.941406 8.671875 -11.859375 L 8.421875 -10.203125 C 7.929688 -10.304688 7.503906 -10.359375 7.140625 -10.359375 C 6.179688 -10.359375 5.363281 -9.972656 4.6875 -9.203125 C 4.007812 -8.429688 3.671875 -7.46875 3.671875 -6.3125 L 3.671875 0 L 1.890625 0 L 1.890625 -11.78125 L 3.359375 -11.78125 L 3.5625 -9.59375 L 3.65625 -9.59375 C 4.09375 -10.363281 4.617188 -10.953125 5.234375 -11.359375 C 5.847656 -11.773438 6.523438 -11.984375 7.265625 -11.984375 Z M 7.265625 -11.984375 "/></g></g></g><g fill="#ffffff" fill-opacity="1"><g transform="translate(192.624111, 182.199979)"><g><path d="M 6.859375 0.21875 C 5.117188 0.21875 3.742188 -0.3125 2.734375 -1.375 C 1.734375 -2.4375 1.234375 -3.910156 1.234375 -5.796875 C 1.234375 -7.691406 1.703125 -9.195312 2.640625 -10.3125 C 3.578125 -11.425781 4.832031 -11.984375 6.40625 -11.984375 C 7.875 -11.984375 9.035156 -11.5 9.890625 -10.53125 C 10.753906 -9.5625 11.1875 -8.28125 11.1875 -6.6875 L 11.1875 -5.5625 L 3.078125 -5.5625 C 3.117188 -4.175781 3.46875 -3.125 4.125 -2.40625 C 4.789062 -1.695312 5.722656 -1.34375 6.921875 -1.34375 C 8.191406 -1.34375 9.445312 -1.609375 10.6875 -2.140625 L 10.6875 -0.546875 C 10.0625 -0.273438 9.46875 -0.0820312 8.90625 0.03125 C 8.34375 0.15625 7.660156 0.21875 6.859375 0.21875 Z M 6.375 -10.5 C 5.4375 -10.5 4.6875 -10.1875 4.125 -9.5625 C 3.5625 -8.945312 3.226562 -8.097656 3.125 -7.015625 L 9.28125 -7.015625 C 9.28125 -8.140625 9.03125 -9 8.53125 -9.59375 C 8.03125 -10.195312 7.3125 -10.5 6.375 -10.5 Z M 6.375 -10.5 "/></g></g></g><g fill="#ffffff" fill-opacity="1"><g transform="translate(204.964697, 182.199979)"><g><path d="M 9.953125 0 L 9.953125 -7.609375 C 9.953125 -8.578125 9.734375 -9.296875 9.296875 -9.765625 C 8.859375 -10.234375 8.171875 -10.46875 7.234375 -10.46875 C 6.003906 -10.46875 5.101562 -10.132812 4.53125 -9.46875 C 3.957031 -8.800781 3.671875 -7.703125 3.671875 -6.171875 L 3.671875 0 L 1.890625 0 L 1.890625 -11.78125 L 3.34375 -11.78125 L 3.625 -10.15625 L 3.71875 -10.15625 C 4.082031 -10.738281 4.59375 -11.1875 5.25 -11.5 C 5.90625 -11.820312 6.640625 -11.984375 7.453125 -11.984375 C 8.867188 -11.984375 9.9375 -11.640625 10.65625 -10.953125 C 11.375 -10.273438 11.734375 -9.1875 11.734375 -7.6875 L 11.734375 0 Z M 9.953125 0 "/></g></g></g><g fill="#ffffff" fill-opacity="1"><g transform="translate(218.465234, 182.199979)"><g><path d="M 5.6875 -1.25 C 6.007812 -1.25 6.316406 -1.269531 6.609375 -1.3125 C 6.898438 -1.363281 7.132812 -1.414062 7.3125 -1.46875 L 7.3125 -0.109375 C 7.113281 -0.015625 6.828125 0.0625 6.453125 0.125 C 6.078125 0.1875 5.738281 0.21875 5.4375 0.21875 C 3.15625 0.21875 2.015625 -0.984375 2.015625 -3.390625 L 2.015625 -10.390625 L 0.328125 -10.390625 L 0.328125 -11.25 L 2.015625 -11.984375 L 2.765625 -14.5 L 3.796875 -14.5 L 3.796875 -11.78125 L 7.21875 -11.78125 L 7.21875 -10.390625 L 3.796875 -10.390625 L 3.796875 -3.453125 C 3.796875 -2.742188 3.960938 -2.195312 4.296875 -1.8125 C 4.640625 -1.4375 5.101562 -1.25 5.6875 -1.25 Z M 5.6875 -1.25 "/></g></g></g><g fill="#ffffff" fill-opacity="1"><g transform="translate(226.230462, 182.199979)"><g><path d="M 9.125 0 L 8.78125 -1.671875 L 8.6875 -1.671875 C 8.101562 -0.929688 7.519531 -0.429688 6.9375 -0.171875 C 6.351562 0.0859375 5.625 0.21875 4.75 0.21875 C 3.582031 0.21875 2.664062 -0.0820312 2 -0.6875 C 1.34375 -1.289062 1.015625 -2.144531 1.015625 -3.25 C 1.015625 -5.632812 2.914062 -6.882812 6.71875 -7 L 8.71875 -7.0625 L 8.71875 -7.78125 C 8.71875 -8.707031 8.515625 -9.390625 8.109375 -9.828125 C 7.710938 -10.273438 7.078125 -10.5 6.203125 -10.5 C 5.222656 -10.5 4.113281 -10.195312 2.875 -9.59375 L 2.328125 -10.953125 C 2.910156 -11.273438 3.546875 -11.523438 4.234375 -11.703125 C 4.929688 -11.878906 5.625 -11.96875 6.3125 -11.96875 C 7.71875 -11.96875 8.757812 -11.65625 9.4375 -11.03125 C 10.113281 -10.40625 10.453125 -9.40625 10.453125 -8.03125 L 10.453125 0 Z M 5.109375 -1.25 C 6.210938 -1.25 7.082031 -1.550781 7.71875 -2.15625 C 8.351562 -2.769531 8.671875 -3.628906 8.671875 -4.734375 L 8.671875 -5.796875 L 6.890625 -5.71875 C 5.472656 -5.664062 4.445312 -5.441406 3.8125 -5.046875 C 3.1875 -4.660156 2.875 -4.054688 2.875 -3.234375 C 2.875 -2.585938 3.066406 -2.09375 3.453125 -1.75 C 3.847656 -1.414062 4.398438 -1.25 5.109375 -1.25 Z M 5.109375 -1.25 "/></g></g></g><g fill="#ffffff" fill-opacity="1"><g transform="translate(238.463646, 182.199979)"><g><path d="M 3.671875 0 L 1.890625 0 L 1.890625 -16.71875 L 3.671875 -16.71875 Z M 3.671875 0 "/></g></g></g><g fill="#ffffff" fill-opacity="1"><g transform="translate(244.027111, 182.199979)"><g><path d="M 9.484375 -3.21875 C 9.484375 -2.113281 9.070312 -1.265625 8.25 -0.671875 C 7.4375 -0.078125 6.296875 0.21875 4.828125 0.21875 C 3.265625 0.21875 2.046875 -0.03125 1.171875 -0.53125 L 1.171875 -2.1875 C 1.734375 -1.894531 2.335938 -1.664062 2.984375 -1.5 C 3.640625 -1.332031 4.265625 -1.25 4.859375 -1.25 C 5.796875 -1.25 6.515625 -1.398438 7.015625 -1.703125 C 7.515625 -2.003906 7.765625 -2.457031 7.765625 -3.0625 C 7.765625 -3.519531 7.566406 -3.910156 7.171875 -4.234375 C 6.773438 -4.566406 6 -4.953125 4.84375 -5.390625 C 3.75 -5.796875 2.96875 -6.148438 2.5 -6.453125 C 2.039062 -6.765625 1.695312 -7.113281 1.46875 -7.5 C 1.25 -7.882812 1.140625 -8.347656 1.140625 -8.890625 C 1.140625 -9.847656 1.53125 -10.601562 2.3125 -11.15625 C 3.09375 -11.707031 4.160156 -11.984375 5.515625 -11.984375 C 6.785156 -11.984375 8.023438 -11.726562 9.234375 -11.21875 L 8.609375 -9.765625 C 7.421875 -10.253906 6.347656 -10.5 5.390625 -10.5 C 4.546875 -10.5 3.910156 -10.363281 3.484375 -10.09375 C 3.054688 -9.832031 2.84375 -9.46875 2.84375 -9 C 2.84375 -8.6875 2.921875 -8.414062 3.078125 -8.1875 C 3.234375 -7.96875 3.488281 -7.757812 3.84375 -7.5625 C 4.207031 -7.363281 4.898438 -7.070312 5.921875 -6.6875 C 7.316406 -6.1875 8.257812 -5.675781 8.75 -5.15625 C 9.238281 -4.644531 9.484375 -4 9.484375 -3.21875 Z M 9.484375 -3.21875 "/></g></g></g><g fill="#ffffff" fill-opacity="1"><g transform="translate(254.520369, 182.199979)"><g><path d="M 1.640625 -1.140625 C 1.640625 -1.617188 1.742188 -1.976562 1.953125 -2.21875 C 2.171875 -2.46875 2.488281 -2.59375 2.90625 -2.59375 C 3.320312 -2.59375 3.644531 -2.46875 3.875 -2.21875 C 4.101562 -1.976562 4.21875 -1.617188 4.21875 -1.140625 C 4.21875 -0.671875 4.097656 -0.3125 3.859375 -0.0625 C 3.628906 0.1875 3.3125 0.3125 2.90625 0.3125 C 2.539062 0.3125 2.238281 0.203125 2 -0.015625 C 1.757812 -0.242188 1.640625 -0.617188 1.640625 -1.140625 Z M 1.640625 -1.140625 "/></g></g></g></svg>