<?xml version="1.0" encoding="UTF-8" standalone="no"?><svg xmlns="http://www.w3.org/2000/svg" xmlns:xlink="http://www.w3.org/1999/xlink" width="500" zoomAndPan="magnify" viewBox="0 0 375 374.999991" height="500" preserveAspectRatio="xMidYMid meet" version="1.0"><defs><g/><clipPath id="id1"><path d="M 10.324219 10.324219 L 364.324219 10.324219 L 364.324219 364.324219 L 10.324219 364.324219 Z M 10.324219 10.324219 " clip-rule="nonzero"/></clipPath><clipPath id="id2"><path d="M 48.550781 95 L 326.71875 95 L 326.71875 225.46875 L 48.550781 225.46875 Z M 48.550781 95 " clip-rule="nonzero"/></clipPath></defs><rect x="-37.5" width="450" fill="#ffffff" y="-37.499999" height="449.999989" fill-opacity="1"/><rect x="-37.5" width="450" fill="#030929" y="-37.499999" height="449.999989" fill-opacity="1"/><rect x="-37.5" width="450" fill="#ffffff" y="-37.499999" height="449.999989" fill-opacity="1"/><rect x="-37.5" width="450" fill="#030929" y="-37.499999" height="449.999989" fill-opacity="1"/><g clip-path="url(#id1)"><path fill="#56c8e6" d="M 187.324219 10.324219 C 89.570312 10.324219 10.324219 89.570312 10.324219 187.324219 C 10.324219 285.082031 89.570312 364.324219 187.324219 364.324219 C 285.082031 364.324219 364.324219 285.082031 364.324219 187.324219 C 364.324219 89.570312 285.082031 10.324219 187.324219 10.324219 " fill-opacity="1" fill-rule="nonzero"/></g><g clip-path="url(#id2)"><path stroke-linecap="round" transform="matrix(0.0170172, 0, 0, -0.0169585, 48.879644, 225.387715)" fill="none" stroke-linejoin="round" d="M 11501.67288 3760.39052 C 11095.832575 4080.565783 10690.221817 4400.971389 10036.470012 4739.804348 C 9382.718208 5078.637307 8480.595809 5436.358303 7773.359394 5636.525429 C 7066.122979 5836.692554 6553.772548 5879.305809 6433.719109 5911.323335 C 6313.665671 5943.340861 6585.909224 5964.76266 7178.371797 5970.060524 C 7770.83437 5975.358388 8683.515962 5964.76266 9673.555123 5924.683166 C 10663.594285 5884.603673 11730.991017 5815.270756 12606.485884 5593.912174 C 13481.751204 5372.323251 14164.885112 4998.708662 14605.387118 4745.102212 C 15045.659576 4491.726104 15243.300132 4358.127793 15176.501756 4251.479485 C 15109.70338 4144.600836 14778.695619 4064.672191 14175.673853 3992.575171 C 13572.422539 3920.478152 12697.157219 3856.443099 11787.230199 3805.767877 C 10877.073632 3755.092656 9932.484911 3717.777265 9233.282665 3755.092656 C 8534.080419 3792.408046 8080.264648 3904.584559 7687.967656 4182.146569 C 7295.670663 4459.708578 6964.662903 4902.656083 7018.147513 5150.734327 C 7071.632124 5399.042913 7509.15001 5452.251896 7880.099067 5254.848873 C 8251.048125 5057.445851 8555.428354 4608.97014 8638.06552 4291.558979 C 8720.702687 3973.917476 8582.055885 3787.110182 8125.715089 3883.162761 C 7669.374293 3979.21534 6895.339502 4358.127793 6513.831251 4723.680414 C 6132.093452 5089.463377 6142.882194 5441.656167 6366.920733 5631.227565 C 6591.188821 5820.56862 7028.706707 5847.288282 7522.463775 5641.823293 C 8016.220844 5436.358303 8565.987547 4998.708662 8798.289804 4630.391938 C 9030.362512 4262.075214 8944.970774 3963.321748 8640.820092 3808.53198 C 8336.439863 3653.742212 7813.300691 3642.916142 7196.965159 3672.399908 C 6580.40008 3701.653331 5870.63864 3770.986248 5670.47306 3784.346079 C 5470.307479 3797.70591 5779.737757 3755.092656 5921.368678 3779.048215 C 6062.770052 3803.003774 6036.14252 3893.758489 5859.849899 3968.619612 C 5683.786825 4043.250393 5358.058661 4101.987582 5240.759795 4064.672191 C 5123.231381 4027.356801 5214.132263 3893.758489 5256.828133 3560.223394 C 5299.524002 3226.688299 5294.244405 2692.986079 5150.08846 2415.42407 C 5005.932514 2137.862061 4723.129767 2116.440262 4469.479576 2135.097958 C 4216.058933 2153.755653 3991.790845 2212.492842 3916.9583 1961.650495 C 3842.355303 1710.808148 3916.9583 1150.386265 4061.114246 795.429372 C 4205.270192 440.472479 4418.749538 290.980575 4573.464677 275.086983 C 4728.409364 258.963049 4824.360296 376.437426 4915.261179 696.61269 C 5005.932514 1017.018295 5091.324252 1540.124788 5051.382955 2020.387683 C 5011.212111 2500.650579 4845.70823 2938.30022 4677.679326 3296.021216 C 4509.420873 3653.742212 4338.637396 3931.07388 4157.294726 3904.584559 C 3975.722507 3877.864897 3783.591096 3546.863563 3703.478954 3031.819038 C 3623.59636 2516.774513 3655.503488 1817.456455 3775.556927 1289.052099 C 3895.610366 760.647743 4103.810115 403.157088 4328.078203 237.54125 C 4552.116742 72.155754 4792.453168 98.875417 4949.922879 304.340406 C 5107.39259 509.805396 5181.995588 894.246054 5208.852667 1371.975189 C 5235.480198 1849.473981 5214.132263 2420.721934 5088.56968 3026.521174 C 4963.236645 3632.320414 4733.688961 4272.670942 4466.725004 4563.592782 C 4199.990595 4854.514623 3895.610366 4795.777434 3706.233526 4502.321832 C 3516.856687 4208.635889 3442.024142 3680.231533 3439.26957 3157.355383 C 3436.744545 2634.24889 3506.067946 2116.440262 3303.147793 1959.116734 C 3100.457188 1801.562863 2625.523029 2004.263749 2203.843933 2143.159925 C 1782.164838 2281.825758 1413.740805 2356.686881 1259.025665 2348.624914 C 1104.310526 2340.562947 1162.845186 2249.808232 1317.789873 2185.773179 C 1472.505012 2121.738126 1723.400631 2084.422736 2102.383857 1977.774429 C 2481.367084 1870.89578 2988.437918 1694.684213 3279.274834 1553.254277 C 3570.11175 1411.82434 3644.944295 1305.176033 3655.503488 1358.615357 C 3666.292229 1411.82434 3612.807619 1625.351297 3439.26957 1774.8432 C 3265.961068 1924.335104 2972.36958 2009.561613 2644.116392 2156.519756 C 2315.863203 2303.247557 1952.948315 2511.476649 1728.680227 2868.967303 C 1504.641688 3226.688299 1419.020401 3733.670857 1413.740805 4198.040161 C 1408.461208 4662.409464 1483.293753 5084.165513 1488.57335 5238.955281 C 1493.852946 5393.745049 1429.809142 5281.568536 1291.162341 5217.533483 C 1152.285992 5153.49843 938.806646 5137.374496 863.974101 4969.224897 C 789.371104 4801.075298 853.414908 4480.900034 928.017905 4315.514538 C 1002.85045 4150.129042 1088.242188 4139.302972 1141.497251 4307.452571 C 1194.981862 4475.60217 1216.329796 4822.497096 1176.388499 5033.25995 C 1136.217654 5244.253145 1034.757578 5318.883926 869.483245 5286.8664 C 703.979365 5254.848873 474.431681 5116.18304 399.599136 5025.428325 C 324.996139 4934.673609 405.10828 4891.830013 484.990875 4713.084686 C 565.103016 4534.339359 645.215158 4219.461959 706.50439 3808.53198 C 768.023169 3397.371659 810.719038 2890.389101 904.144946 2594.169397 C 997.570853 2297.949693 1141.497251 2212.492842 1269.584859 2140.395822 C 1397.902014 2068.529144 1509.921284 2009.561613 1440.368336 1977.774429 C 1371.044935 1945.756902 1120.149317 1940.228696 936.052074 1948.290663 C 751.954831 1956.352631 634.426417 1977.774429 538.475485 2095.018464 C 442.295005 2212.492842 367.692008 2426.019798 295.614035 2823.589946 C 223.536062 3221.390435 154.212662 3803.003774 180.840193 4142.067075 C 207.467724 4480.900034 330.275735 4576.952613 431.735812 4352.829929 C 533.195888 4128.707244 613.078482 3584.178954 631.901392 3122.573753 C 650.494755 2660.968553 607.798886 2281.825758 546.509654 2111.142398 C 485.220422 1940.228696 405.10828 1977.774429 306.402776 2265.932166 C 207.467724 2554.089904 90.168858 3093.32033 47.472989 3578.88109 C 4.777119 4064.672191 36.684247 4497.023968 132.864727 4814.435129 C 228.815659 5132.076632 389.039943 5335.00786 597.239692 5468.37583 C 805.439442 5601.743799 1061.614657 5665.778852 1437.384216 5939.885733 C 1813.383323 6213.992613 2308.976773 6698.171321 2647.789155 6962.373499 C 2986.601536 7226.575678 3169.091945 7270.801326 3300.163673 7130.292757 C 3431.464948 6989.553846 3511.347542 6664.080718 3551.518387 6405.176404 C 3591.459684 6146.27209 3591.459684 5954.166931 3460.847052 5882.069912 C 3330.004872 5809.972892 3068.320512 5858.114352 2804.111128 5970.060524 C 2540.131291 6082.237037 2273.167334 6258.218261 2033.060456 6311.657586 C 1792.724031 6365.09691 1579.244685 6295.763993 1496.607519 6175.525513 C 1413.740805 6055.517375 1461.716271 5884.603673 1613.906385 5793.848958 C 1766.0965 5703.324584 2022.271715 5692.498514 2246.539803 5689.964753 C 2470.578342 5687.20065 2662.709754 5692.498514 2772.203999 5639.05919 C 2881.698245 5585.850207 2908.325776 5473.673694 2961.580839 5431.060439 C 3015.065449 5388.216843 3095.177591 5414.936505 3119.05055 5545.770714 C 3143.153057 5676.604922 3111.016381 5911.323335 2985.683346 6087.534901 C 2860.35031 6263.746467 2641.361819 6380.990503 2462.544173 6429.131963 C 2283.726528 6477.043082 2145.079726 6455.851625 2241.030658 6610.641393 C 2337.211138 6765.431161 2667.989351 7096.202153 2953.776218 7293.835517 C 3239.103989 7491.23854 3479.440414 7555.273592 4138.471815 7598.117189 C 4797.732764 7640.730443 5875.918237 7662.152241 6737.869791 7590.055222 C 7599.821345 7517.958202 8245.768528 7352.572706 8822.162763 7088.370528 C 9398.556998 6824.16835 9905.627832 6461.149489 10164.55762 6271.578092 C 10423.487408 6082.237037 10434.046601 6066.113103 9999.05374 6090.068662 C 9564.060878 6114.254563 8683.515962 6178.289616 7615.889683 6146.27209 C 6548.492951 6114.254563 5294.244405 5986.184458 4645.54265 5929.98103 C 3997.070442 5874.007945 3954.374573 5890.131879 3890.330769 6116.788324 C 3826.286965 6343.675112 3740.895227 6781.324753 3711.513123 7042.99317 C 3682.131019 7304.431245 3708.988098 7389.888096 4039.766311 7448.625285 C 4370.774072 7507.362474 5005.932514 7539.38 5873.163665 7491.23854 C 6740.624363 7443.327421 7840.15777 7315.026973 8664.693052 7050.824795 C 9489.457881 6786.622617 10038.995037 6386.518709 10388.59616 6210.307142 C 10738.197283 6034.095576 10887.862373 6082.237037 10877.073632 6164.929785 C 10866.28489 6247.622533 10695.730961 6365.09691 10524.717936 6394.350334 C 10354.164007 6423.834099 10183.38053 6365.09691 10266.017696 6292.99989 C 10348.654863 6220.902871 10684.94222 6135.44602 11104.096291 6079.472934 C 11522.791267 6023.499848 12024.812052 5996.780186 12555.755846 5980.656252 C 13086.699639 5964.76266 13647.255084 5959.464796 14060.900011 5887.367776 C 14474.544938 5815.270756 14741.508894 5676.604922 14981.615772 5439.122406 C 15221.722649 5201.409549 15435.201996 4865.340693 15427.397374 4755.928282 C 15419.363206 4646.28553 15189.815521 4763.759908 14890.944437 4971.989 C 14592.073352 5180.218092 14223.649319 5478.971558 14146.291749 5599.210038 C 14068.93418 5719.218177 14282.413526 5660.480988 14592.073352 5460.313863 C 14901.50363 5260.146737 15307.114388 4918.549675 15603.460448 4670.471431 C 15899.576961 4422.162846 16086.428776 4267.373078 16145.192983 4099.223479 C 16203.95719 3931.07388 16134.404242 3749.794792 15784.803119 3595.005024 C 15435.201996 3440.215256 14805.552698 3312.14515 14111.630049 3215.862229 C 13417.7074 3119.80965 12659.740947 3055.774597 12128.797153 3047.942972 C 11597.623812 3039.881005 11293.473131 3087.792124 10626.40756 3101.151955 C 9959.112443 3114.511786 8928.902436 3093.32033 8304.532735 3018.459207 C 7679.933487 2943.828426 7461.174544 2815.758321 7359.714467 2719.4754 C 7258.254391 2623.42282 7274.322729 2559.387768 7808.021094 2546.027936 C 8341.949008 2532.668105 9393.277401 2570.213838 10580.957119 2612.827092 C 11768.407289 2655.440347 13092.208784 2703.581807 14071.688752 2812.994218 C 15050.939172 2922.406628 15686.097615 3093.32033 15993.002868 3282.661385 C 16299.908122 3472.232782 16278.560187 3680.231533 16273.280591 3731.137096 C 16268.000994 3781.812318 16278.560187 3674.933669 16284.069332 3474.766543 C 16289.348928 3274.599418 16289.348928 2981.143817 16235.864318 2751.723268 C 16182.609255 2522.072377 16075.869582 2356.686881 16009.071206 2223.08857 C 15942.502378 2089.7206 15915.645299 1988.370157 15953.061571 1948.290663 C 15990.477844 1908.21117 16091.708372 1929.632968 16133.715599 2028.44965 C 16175.722825 2127.266332 16158.506749 2303.477899 16169.065942 2287.584306 C 16179.625135 2271.460372 16218.418694 2063.23128 16064.392198 1849.704323 C 15910.365702 1636.177367 15563.289604 1417.352546 14421.289875 1179.639688 C 13279.060598 942.157173 11341.448597 686.016962 9844.338601 598.02635 C 8347.228604 509.805396 7290.391067 589.964382 6644.443883 792.665269 C 5998.726248 995.596497 5763.898967 1321.069625 5616.988449 1486.685463 C 5470.307479 1652.070959 5411.543272 1657.368823 5392.949909 1483.92136 C 5374.126999 1310.473897 5395.474934 958.281107 5432.891206 715.270385 C 5470.307479 472.490005 5523.562542 339.122036 5729.237267 226.945522 C 5934.682444 114.999351 6292.317736 24.244636 6433.719109 37.604467 C 6575.120483 50.733956 6500.517485 168.208334 6727.310597 272.32288 C 6954.103709 376.437426 7482.522478 467.192141 8114.926348 477.787869 C 8747.559766 488.613939 9483.948736 419.050681 10244.669762 443.236582 C 11005.161239 467.192141 11789.755224 584.666518 12190.086385 782.069541 C 12590.417546 979.472563 12606.485884 1257.034572 12563.790015 1524.000853 C 12521.094145 1790.736793 12419.634069 2047.107346 12312.894396 2185.773179 C 12206.154723 2324.669355 12093.905905 2345.860811 11979.361611 2164.581723 C 11864.587769 1983.072293 11747.059354 1598.631634 11432.119932 1350.55339 C 11117.180509 1102.244805 10604.830078 990.298633 9977.705805 963.578971 C 9350.581532 936.859309 8608.683417 995.596497 8088.298817 998.3606 C 7567.914217 1000.894361 7269.043132 947.455037 7140.955524 915.43751 C 7012.867916 883.419984 7055.563786 872.824256 7087.470914 1094.413179 C 7119.60759 1315.771761 7140.955524 1769.545336 7204.999328 1983.072293 C 7269.043132 2196.599249 7375.782805 2169.879587 8336.439863 2199.13301 C 9297.326469 2228.616776 11111.900912 2313.843285 12376.9382 2402.064239 C 13641.975487 2490.054851 14357.016523 2580.809566 14832.180229 2684.924112 C 15307.114388 2789.038658 15542.171217 2906.513036 15611.494617 2794.336522 C 15680.818018 2682.160009 15584.637538 2340.562947 15603.460448 2151.221892 C 15622.053811 1961.650495 15755.650563 1924.335104 15838.287729 2100.316328 C 15920.924895 2276.527894 15953.061571 2666.266417 15923.679468 2823.589946 C 15894.297364 2981.143817 15803.626029 2906.513036 15712.954694 2831.651913 " stroke="#021011" stroke-width="56.713001" stroke-opacity="1" stroke-miterlimit="22.926001"/></g><g fill="#050a30" fill-opacity="1"><g transform="translate(135.949214, 260.718981)"><g><path d="M 6.140625 0.15625 C 5.097656 0.15625 4.179688 -0.046875 3.390625 -0.453125 C 2.609375 -0.859375 2.003906 -1.425781 1.578125 -2.15625 C 1.148438 -2.894531 0.9375 -3.742188 0.9375 -4.703125 L 0.9375 -9.3125 C 0.9375 -10.28125 1.148438 -11.128906 1.578125 -11.859375 C 2.003906 -12.585938 2.609375 -13.148438 3.390625 -13.546875 C 4.179688 -13.953125 5.097656 -14.15625 6.140625 -14.15625 C 7.171875 -14.15625 8.070312 -13.960938 8.84375 -13.578125 C 9.625 -13.203125 10.226562 -12.664062 10.65625 -11.96875 C 11.09375 -11.269531 11.3125 -10.460938 11.3125 -9.546875 C 11.3125 -9.421875 11.207031 -9.34375 11 -9.3125 L 8.859375 -9.1875 L 8.78125 -9.1875 C 8.59375 -9.1875 8.5 -9.21875 8.5 -9.28125 L 8.5 -9.40625 C 8.5 -10.101562 8.28125 -10.664062 7.84375 -11.09375 C 7.414062 -11.519531 6.847656 -11.734375 6.140625 -11.734375 C 5.421875 -11.734375 4.84375 -11.519531 4.40625 -11.09375 C 3.976562 -10.664062 3.765625 -10.101562 3.765625 -9.40625 L 3.765625 -4.578125 C 3.765625 -3.890625 3.976562 -3.332031 4.40625 -2.90625 C 4.84375 -2.476562 5.421875 -2.265625 6.140625 -2.265625 C 6.847656 -2.265625 7.414062 -2.476562 7.84375 -2.90625 C 8.28125 -3.332031 8.5 -3.890625 8.5 -4.578125 C 8.5 -4.648438 8.53125 -4.707031 8.59375 -4.75 C 8.65625 -4.789062 8.738281 -4.804688 8.84375 -4.796875 L 10.984375 -4.703125 C 11.203125 -4.671875 11.3125 -4.632812 11.3125 -4.59375 L 11.3125 -4.5 C 11.3125 -3.582031 11.09375 -2.769531 10.65625 -2.0625 C 10.226562 -1.351562 9.625 -0.804688 8.84375 -0.421875 C 8.070312 -0.0351562 7.171875 0.15625 6.140625 0.15625 Z M 6.140625 0.15625 "/></g></g></g><g fill="#050a30" fill-opacity="1"><g transform="translate(148.104418, 260.718981)"><g><path d="M 8.65625 -13.65625 C 8.65625 -13.882812 8.769531 -14 9 -14 L 11.140625 -14 C 11.367188 -14 11.484375 -13.882812 11.484375 -13.65625 L 11.484375 -0.34375 C 11.484375 -0.113281 11.367188 0 11.140625 0 L 9 0 C 8.769531 0 8.65625 -0.113281 8.65625 -0.34375 L 8.65625 -5.734375 C 8.65625 -5.816406 8.617188 -5.859375 8.546875 -5.859375 L 4.15625 -5.859375 C 4.082031 -5.859375 4.046875 -5.816406 4.046875 -5.734375 L 4.046875 -0.34375 C 4.046875 -0.113281 3.929688 0 3.703125 0 L 1.5625 0 C 1.332031 0 1.21875 -0.113281 1.21875 -0.34375 L 1.21875 -13.65625 C 1.21875 -13.882812 1.332031 -14 1.5625 -14 L 3.703125 -14 C 3.929688 -14 4.046875 -13.882812 4.046875 -13.65625 L 4.046875 -8.40625 C 4.046875 -8.320312 4.082031 -8.28125 4.15625 -8.28125 L 8.546875 -8.28125 C 8.617188 -8.28125 8.65625 -8.320312 8.65625 -8.40625 Z M 8.65625 -13.65625 "/></g></g></g><g fill="#050a30" fill-opacity="1"><g transform="translate(160.659467, 260.718981)"><g><path d="M 10.21875 0 C 10.03125 0 9.90625 -0.09375 9.84375 -0.28125 L 9.28125 -2.140625 C 9.269531 -2.203125 9.226562 -2.234375 9.15625 -2.234375 L 4.265625 -2.234375 C 4.191406 -2.234375 4.148438 -2.203125 4.140625 -2.140625 L 3.578125 -0.28125 C 3.515625 -0.09375 3.390625 0 3.203125 0 L 0.875 0 C 0.757812 0 0.675781 -0.0351562 0.625 -0.109375 C 0.570312 -0.179688 0.5625 -0.269531 0.59375 -0.375 L 4.859375 -13.71875 C 4.921875 -13.90625 5.046875 -14 5.234375 -14 L 8.1875 -14 C 8.363281 -14 8.488281 -13.90625 8.5625 -13.71875 L 12.8125 -0.375 C 12.832031 -0.351562 12.84375 -0.316406 12.84375 -0.265625 C 12.84375 -0.179688 12.816406 -0.113281 12.765625 -0.0625 C 12.710938 -0.0195312 12.640625 0 12.546875 0 Z M 4.84375 -4.5625 C 4.820312 -4.46875 4.851562 -4.421875 4.9375 -4.421875 L 8.484375 -4.421875 C 8.554688 -4.421875 8.585938 -4.46875 8.578125 -4.5625 L 6.78125 -10.65625 C 6.769531 -10.707031 6.742188 -10.734375 6.703125 -10.734375 C 6.671875 -10.734375 6.644531 -10.707031 6.625 -10.65625 Z M 4.84375 -4.5625 "/></g></g></g><g fill="#050a30" fill-opacity="1"><g transform="translate(174.074173, 260.718981)"><g><path d="M 8.984375 0 C 8.804688 0 8.671875 -0.0859375 8.578125 -0.265625 L 6.125 -5.703125 C 6.09375 -5.765625 6.046875 -5.796875 5.984375 -5.796875 L 4.15625 -5.796875 C 4.082031 -5.796875 4.046875 -5.757812 4.046875 -5.6875 L 4.046875 -0.34375 C 4.046875 -0.113281 3.929688 0 3.703125 0 L 1.5625 0 C 1.332031 0 1.21875 -0.113281 1.21875 -0.34375 L 1.21875 -13.6875 C 1.21875 -13.90625 1.332031 -14.015625 1.5625 -14.015625 L 7.1875 -14.015625 C 8.03125 -14.015625 8.773438 -13.835938 9.421875 -13.484375 C 10.078125 -13.128906 10.578125 -12.632812 10.921875 -12 C 11.273438 -11.363281 11.453125 -10.628906 11.453125 -9.796875 C 11.453125 -8.890625 11.222656 -8.109375 10.765625 -7.453125 C 10.316406 -6.804688 9.695312 -6.347656 8.90625 -6.078125 C 8.863281 -6.066406 8.832031 -6.039062 8.8125 -6 C 8.800781 -5.96875 8.8125 -5.941406 8.84375 -5.921875 L 11.484375 -0.40625 C 11.523438 -0.34375 11.546875 -0.28125 11.546875 -0.21875 C 11.546875 -0.15625 11.515625 -0.101562 11.453125 -0.0625 C 11.398438 -0.0195312 11.328125 0 11.234375 0 Z M 4.15625 -11.578125 C 4.082031 -11.578125 4.046875 -11.535156 4.046875 -11.453125 L 4.046875 -8.09375 C 4.046875 -8.019531 4.082031 -7.984375 4.15625 -7.984375 L 6.765625 -7.984375 C 7.316406 -7.984375 7.769531 -8.144531 8.125 -8.46875 C 8.476562 -8.789062 8.65625 -9.222656 8.65625 -9.765625 C 8.65625 -10.296875 8.476562 -10.726562 8.125 -11.0625 C 7.769531 -11.40625 7.316406 -11.578125 6.765625 -11.578125 Z M 4.15625 -11.578125 "/></g></g></g><g fill="#050a30" fill-opacity="1"><g transform="translate(186.349334, 260.718981)"><g><path d="M 1.5625 0 C 1.332031 0 1.21875 -0.113281 1.21875 -0.34375 L 1.21875 -13.65625 C 1.21875 -13.882812 1.332031 -14 1.5625 -14 L 3.703125 -14 C 3.929688 -14 4.046875 -13.882812 4.046875 -13.65625 L 4.046875 -2.546875 C 4.046875 -2.460938 4.082031 -2.421875 4.15625 -2.421875 L 10.578125 -2.421875 C 10.804688 -2.421875 10.921875 -2.304688 10.921875 -2.078125 L 10.921875 -0.34375 C 10.921875 -0.113281 10.804688 0 10.578125 0 Z M 1.5625 0 "/></g></g></g><g fill="#050a30" fill-opacity="1"><g transform="translate(197.78482, 260.718981)"><g><path d="M 10.78125 -14 C 11.007812 -14 11.125 -13.882812 11.125 -13.65625 L 11.125 -11.90625 C 11.125 -11.675781 11.007812 -11.5625 10.78125 -11.5625 L 7.3125 -11.5625 C 7.238281 -11.5625 7.203125 -11.519531 7.203125 -11.4375 L 7.203125 -0.34375 C 7.203125 -0.113281 7.085938 0 6.859375 0 L 4.71875 0 C 4.488281 0 4.375 -0.113281 4.375 -0.34375 L 4.375 -11.4375 C 4.375 -11.519531 4.335938 -11.5625 4.265625 -11.5625 L 0.90625 -11.5625 C 0.675781 -11.5625 0.5625 -11.675781 0.5625 -11.90625 L 0.5625 -13.65625 C 0.5625 -13.882812 0.675781 -14 0.90625 -14 Z M 10.78125 -14 "/></g></g></g><g fill="#050a30" fill-opacity="1"><g transform="translate(209.4802, 260.718981)"><g><path d="M 6.203125 0.21875 C 5.160156 0.21875 4.242188 0.00390625 3.453125 -0.421875 C 2.660156 -0.847656 2.039062 -1.441406 1.59375 -2.203125 C 1.15625 -2.972656 0.9375 -3.859375 0.9375 -4.859375 L 0.9375 -9.140625 C 0.9375 -10.128906 1.15625 -11.003906 1.59375 -11.765625 C 2.039062 -12.523438 2.660156 -13.113281 3.453125 -13.53125 C 4.242188 -13.945312 5.160156 -14.15625 6.203125 -14.15625 C 7.253906 -14.15625 8.175781 -13.945312 8.96875 -13.53125 C 9.757812 -13.113281 10.375 -12.523438 10.8125 -11.765625 C 11.257812 -11.003906 11.484375 -10.128906 11.484375 -9.140625 L 11.484375 -4.859375 C 11.484375 -3.859375 11.257812 -2.972656 10.8125 -2.203125 C 10.375 -1.429688 9.757812 -0.832031 8.96875 -0.40625 C 8.175781 0.0078125 7.253906 0.21875 6.203125 0.21875 Z M 6.203125 -2.203125 C 6.929688 -2.203125 7.519531 -2.429688 7.96875 -2.890625 C 8.425781 -3.359375 8.65625 -3.984375 8.65625 -4.765625 L 8.65625 -9.15625 C 8.65625 -9.925781 8.429688 -10.546875 7.984375 -11.015625 C 7.535156 -11.492188 6.941406 -11.734375 6.203125 -11.734375 C 5.460938 -11.734375 4.867188 -11.492188 4.421875 -11.015625 C 3.984375 -10.546875 3.765625 -9.925781 3.765625 -9.15625 L 3.765625 -4.765625 C 3.765625 -3.984375 3.984375 -3.359375 4.421875 -2.890625 C 4.867188 -2.429688 5.460938 -2.203125 6.203125 -2.203125 Z M 6.203125 -2.203125 "/></g></g></g><g fill="#050a30" fill-opacity="1"><g transform="translate(221.895299, 260.718981)"><g><path d="M 1.5625 0 C 1.332031 0 1.21875 -0.113281 1.21875 -0.34375 L 1.21875 -13.65625 C 1.21875 -13.882812 1.332031 -14 1.5625 -14 L 3.625 -14 C 3.789062 -14 3.921875 -13.925781 4.015625 -13.78125 L 9.015625 -5.453125 C 9.046875 -5.398438 9.078125 -5.378906 9.109375 -5.390625 C 9.140625 -5.410156 9.15625 -5.445312 9.15625 -5.5 L 9.15625 -13.65625 C 9.15625 -13.882812 9.269531 -14 9.5 -14 L 11.59375 -14 C 11.820312 -14 11.9375 -13.882812 11.9375 -13.65625 L 11.9375 -0.34375 C 11.9375 -0.113281 11.820312 0 11.59375 0 L 9.5625 0 C 9.394531 0 9.257812 -0.078125 9.15625 -0.234375 L 4.140625 -8.640625 C 4.109375 -8.691406 4.078125 -8.710938 4.046875 -8.703125 C 4.015625 -8.691406 4 -8.65625 4 -8.59375 L 4.015625 -0.34375 C 4.015625 -0.113281 3.90625 0 3.6875 0 Z M 1.5625 0 "/></g></g></g><g fill="#050a30" fill-opacity="1"><g transform="translate(235.042962, 260.718981)"><g/></g></g><g fill="#050a30" fill-opacity="1"><g transform="translate(141.550776, 278.71898)"><g><path d="M 2.984375 0 C 2.910156 0 2.863281 -0.0351562 2.84375 -0.109375 L 0.421875 -7.546875 C 0.410156 -7.554688 0.40625 -7.570312 0.40625 -7.59375 C 0.40625 -7.664062 0.445312 -7.703125 0.53125 -7.703125 L 0.875 -7.703125 C 0.945312 -7.703125 0.992188 -7.664062 1.015625 -7.59375 L 3.15625 -0.90625 C 3.164062 -0.882812 3.175781 -0.875 3.1875 -0.875 C 3.207031 -0.875 3.21875 -0.882812 3.21875 -0.90625 L 5.375 -7.59375 C 5.394531 -7.664062 5.441406 -7.703125 5.515625 -7.703125 L 5.859375 -7.703125 C 5.898438 -7.703125 5.929688 -7.6875 5.953125 -7.65625 C 5.972656 -7.632812 5.976562 -7.597656 5.96875 -7.546875 L 3.515625 -0.109375 C 3.492188 -0.0351562 3.445312 0 3.375 0 Z M 2.984375 0 "/></g></g></g><g fill="#050a30" fill-opacity="1"><g transform="translate(147.970271, 278.71898)"><g><path d="M 6.03125 -7.3125 C 6.03125 -7.28125 6.015625 -7.25 5.984375 -7.21875 C 5.960938 -7.195312 5.929688 -7.1875 5.890625 -7.1875 L 1.75 -7.1875 C 1.71875 -7.1875 1.703125 -7.171875 1.703125 -7.140625 L 1.703125 -4.171875 C 1.703125 -4.140625 1.71875 -4.125 1.75 -4.125 L 4.6875 -4.125 C 4.71875 -4.125 4.742188 -4.109375 4.765625 -4.078125 C 4.796875 -4.054688 4.8125 -4.03125 4.8125 -4 L 4.8125 -3.734375 C 4.8125 -3.703125 4.796875 -3.671875 4.765625 -3.640625 C 4.742188 -3.617188 4.71875 -3.609375 4.6875 -3.609375 L 1.75 -3.609375 C 1.71875 -3.609375 1.703125 -3.59375 1.703125 -3.5625 L 1.703125 -0.5625 C 1.703125 -0.53125 1.71875 -0.515625 1.75 -0.515625 L 5.890625 -0.515625 C 5.929688 -0.515625 5.960938 -0.5 5.984375 -0.46875 C 6.015625 -0.445312 6.03125 -0.421875 6.03125 -0.390625 L 6.03125 -0.125 C 6.03125 -0.09375 6.015625 -0.0625 5.984375 -0.03125 C 5.960938 -0.0078125 5.929688 0 5.890625 0 L 1.25 0 C 1.21875 0 1.1875 -0.0078125 1.15625 -0.03125 C 1.132812 -0.0625 1.125 -0.09375 1.125 -0.125 L 1.125 -7.5625 C 1.125 -7.601562 1.132812 -7.632812 1.15625 -7.65625 C 1.1875 -7.6875 1.21875 -7.703125 1.25 -7.703125 L 5.890625 -7.703125 C 5.929688 -7.703125 5.960938 -7.6875 5.984375 -7.65625 C 6.015625 -7.632812 6.03125 -7.601562 6.03125 -7.5625 Z M 6.03125 -7.3125 "/></g></g></g><g fill="#050a30" fill-opacity="1"><g transform="translate(154.730524, 278.71898)"><g><path d="M 5.578125 -7.5625 C 5.578125 -7.601562 5.585938 -7.632812 5.609375 -7.65625 C 5.640625 -7.6875 5.671875 -7.703125 5.703125 -7.703125 L 6.03125 -7.703125 C 6.0625 -7.703125 6.085938 -7.6875 6.109375 -7.65625 C 6.140625 -7.632812 6.15625 -7.601562 6.15625 -7.5625 L 6.15625 -0.125 C 6.15625 -0.09375 6.140625 -0.0625 6.109375 -0.03125 C 6.085938 -0.0078125 6.0625 0 6.03125 0 L 5.703125 0 C 5.671875 0 5.640625 -0.0078125 5.609375 -0.03125 C 5.585938 -0.0625 5.578125 -0.09375 5.578125 -0.125 L 5.578125 -3.5625 C 5.578125 -3.59375 5.5625 -3.609375 5.53125 -3.609375 L 1.75 -3.609375 C 1.71875 -3.609375 1.703125 -3.59375 1.703125 -3.5625 L 1.703125 -0.125 C 1.703125 -0.09375 1.6875 -0.0625 1.65625 -0.03125 C 1.632812 -0.0078125 1.609375 0 1.578125 0 L 1.25 0 C 1.21875 0 1.1875 -0.0078125 1.15625 -0.03125 C 1.132812 -0.0625 1.125 -0.09375 1.125 -0.125 L 1.125 -7.5625 C 1.125 -7.601562 1.132812 -7.632812 1.15625 -7.65625 C 1.1875 -7.6875 1.21875 -7.703125 1.25 -7.703125 L 1.578125 -7.703125 C 1.609375 -7.703125 1.632812 -7.6875 1.65625 -7.65625 C 1.6875 -7.632812 1.703125 -7.601562 1.703125 -7.5625 L 1.703125 -4.171875 C 1.703125 -4.140625 1.71875 -4.125 1.75 -4.125 L 5.53125 -4.125 C 5.5625 -4.125 5.578125 -4.140625 5.578125 -4.171875 Z M 5.578125 -7.5625 "/></g></g></g><g fill="#050a30" fill-opacity="1"><g transform="translate(162.040392, 278.71898)"><g><path d="M 1.25 0 C 1.21875 0 1.1875 -0.0078125 1.15625 -0.03125 C 1.132812 -0.0625 1.125 -0.09375 1.125 -0.125 L 1.125 -7.5625 C 1.125 -7.601562 1.132812 -7.632812 1.15625 -7.65625 C 1.1875 -7.6875 1.21875 -7.703125 1.25 -7.703125 L 1.578125 -7.703125 C 1.609375 -7.703125 1.632812 -7.6875 1.65625 -7.65625 C 1.6875 -7.632812 1.703125 -7.601562 1.703125 -7.5625 L 1.703125 -0.125 C 1.703125 -0.09375 1.6875 -0.0625 1.65625 -0.03125 C 1.632812 -0.0078125 1.609375 0 1.578125 0 Z M 1.25 0 "/></g></g></g><g fill="#050a30" fill-opacity="1"><g transform="translate(164.920389, 278.71898)"><g><path d="M 3.390625 0.09375 C 2.890625 0.09375 2.445312 -0.00390625 2.0625 -0.203125 C 1.6875 -0.398438 1.394531 -0.675781 1.1875 -1.03125 C 0.976562 -1.394531 0.875 -1.8125 0.875 -2.28125 L 0.875 -5.421875 C 0.875 -5.890625 0.976562 -6.300781 1.1875 -6.65625 C 1.394531 -7.007812 1.6875 -7.285156 2.0625 -7.484375 C 2.445312 -7.679688 2.890625 -7.78125 3.390625 -7.78125 C 3.878906 -7.78125 4.3125 -7.679688 4.6875 -7.484375 C 5.070312 -7.296875 5.367188 -7.023438 5.578125 -6.671875 C 5.785156 -6.328125 5.890625 -5.921875 5.890625 -5.453125 C 5.890625 -5.421875 5.875 -5.390625 5.84375 -5.359375 C 5.820312 -5.335938 5.796875 -5.328125 5.765625 -5.328125 L 5.4375 -5.3125 C 5.351562 -5.3125 5.3125 -5.332031 5.3125 -5.375 L 5.3125 -5.4375 C 5.3125 -5.988281 5.132812 -6.429688 4.78125 -6.765625 C 4.425781 -7.097656 3.960938 -7.265625 3.390625 -7.265625 C 2.804688 -7.265625 2.335938 -7.097656 1.984375 -6.765625 C 1.628906 -6.429688 1.453125 -5.988281 1.453125 -5.4375 L 1.453125 -2.25 C 1.453125 -1.707031 1.628906 -1.265625 1.984375 -0.921875 C 2.335938 -0.585938 2.804688 -0.421875 3.390625 -0.421875 C 3.960938 -0.421875 4.425781 -0.585938 4.78125 -0.921875 C 5.132812 -1.265625 5.3125 -1.707031 5.3125 -2.25 C 5.3125 -2.332031 5.351562 -2.375 5.4375 -2.375 L 5.765625 -2.359375 C 5.847656 -2.359375 5.890625 -2.34375 5.890625 -2.3125 L 5.890625 -2.25 C 5.890625 -1.789062 5.785156 -1.382812 5.578125 -1.03125 C 5.367188 -0.675781 5.070312 -0.398438 4.6875 -0.203125 C 4.3125 -0.00390625 3.878906 0.09375 3.390625 0.09375 Z M 3.390625 0.09375 "/></g></g></g><g fill="#050a30" fill-opacity="1"><g transform="translate(171.636674, 278.71898)"><g><path d="M 1.25 0 C 1.21875 0 1.1875 -0.0078125 1.15625 -0.03125 C 1.132812 -0.0625 1.125 -0.09375 1.125 -0.125 L 1.125 -7.5625 C 1.125 -7.601562 1.132812 -7.632812 1.15625 -7.65625 C 1.1875 -7.6875 1.21875 -7.703125 1.25 -7.703125 L 1.578125 -7.703125 C 1.609375 -7.703125 1.632812 -7.6875 1.65625 -7.65625 C 1.6875 -7.632812 1.703125 -7.601562 1.703125 -7.5625 L 1.703125 -0.5625 C 1.703125 -0.53125 1.71875 -0.515625 1.75 -0.515625 L 5.671875 -0.515625 C 5.710938 -0.515625 5.742188 -0.5 5.765625 -0.46875 C 5.796875 -0.445312 5.8125 -0.421875 5.8125 -0.390625 L 5.8125 -0.125 C 5.8125 -0.09375 5.796875 -0.0625 5.765625 -0.03125 C 5.742188 -0.0078125 5.710938 0 5.671875 0 Z M 1.25 0 "/></g></g></g><g fill="#050a30" fill-opacity="1"><g transform="translate(177.913266, 278.71898)"><g><path d="M 6.03125 -7.3125 C 6.03125 -7.28125 6.015625 -7.25 5.984375 -7.21875 C 5.960938 -7.195312 5.929688 -7.1875 5.890625 -7.1875 L 1.75 -7.1875 C 1.71875 -7.1875 1.703125 -7.171875 1.703125 -7.140625 L 1.703125 -4.171875 C 1.703125 -4.140625 1.71875 -4.125 1.75 -4.125 L 4.6875 -4.125 C 4.71875 -4.125 4.742188 -4.109375 4.765625 -4.078125 C 4.796875 -4.054688 4.8125 -4.03125 4.8125 -4 L 4.8125 -3.734375 C 4.8125 -3.703125 4.796875 -3.671875 4.765625 -3.640625 C 4.742188 -3.617188 4.71875 -3.609375 4.6875 -3.609375 L 1.75 -3.609375 C 1.71875 -3.609375 1.703125 -3.59375 1.703125 -3.5625 L 1.703125 -0.5625 C 1.703125 -0.53125 1.71875 -0.515625 1.75 -0.515625 L 5.890625 -0.515625 C 5.929688 -0.515625 5.960938 -0.5 5.984375 -0.46875 C 6.015625 -0.445312 6.03125 -0.421875 6.03125 -0.390625 L 6.03125 -0.125 C 6.03125 -0.09375 6.015625 -0.0625 5.984375 -0.03125 C 5.960938 -0.0078125 5.929688 0 5.890625 0 L 1.25 0 C 1.21875 0 1.1875 -0.0078125 1.15625 -0.03125 C 1.132812 -0.0625 1.125 -0.09375 1.125 -0.125 L 1.125 -7.5625 C 1.125 -7.601562 1.132812 -7.632812 1.15625 -7.65625 C 1.1875 -7.6875 1.21875 -7.703125 1.25 -7.703125 L 5.890625 -7.703125 C 5.929688 -7.703125 5.960938 -7.6875 5.984375 -7.65625 C 6.015625 -7.632812 6.03125 -7.601562 6.03125 -7.5625 Z M 6.03125 -7.3125 "/></g></g></g><g fill="#050a30" fill-opacity="1"><g transform="translate(184.673519, 278.71898)"><g/></g></g><g fill="#050a30" fill-opacity="1"><g transform="translate(186.915966, 278.71898)"><g><path d="M 5.703125 0 C 5.640625 0 5.59375 -0.03125 5.5625 -0.09375 L 3.859375 -3.59375 C 3.847656 -3.613281 3.832031 -3.625 3.8125 -3.625 L 1.75 -3.625 C 1.71875 -3.625 1.703125 -3.613281 1.703125 -3.59375 L 1.703125 -0.125 C 1.703125 -0.09375 1.6875 -0.0625 1.65625 -0.03125 C 1.632812 -0.0078125 1.609375 0 1.578125 0 L 1.25 0 C 1.21875 0 1.1875 -0.0078125 1.15625 -0.03125 C 1.132812 -0.0625 1.125 -0.09375 1.125 -0.125 L 1.125 -7.59375 C 1.125 -7.625 1.132812 -7.648438 1.15625 -7.671875 C 1.1875 -7.703125 1.21875 -7.71875 1.25 -7.71875 L 4 -7.71875 C 4.613281 -7.71875 5.109375 -7.523438 5.484375 -7.140625 C 5.867188 -6.765625 6.0625 -6.269531 6.0625 -5.65625 C 6.0625 -5.125 5.914062 -4.679688 5.625 -4.328125 C 5.332031 -3.972656 4.945312 -3.753906 4.46875 -3.671875 C 4.425781 -3.660156 4.414062 -3.644531 4.4375 -3.625 L 6.109375 -0.15625 C 6.128906 -0.125 6.140625 -0.101562 6.140625 -0.09375 C 6.140625 -0.03125 6.097656 0 6.015625 0 Z M 1.75 -7.1875 C 1.71875 -7.1875 1.703125 -7.175781 1.703125 -7.15625 L 1.703125 -4.15625 C 1.703125 -4.125 1.71875 -4.109375 1.75 -4.109375 L 3.953125 -4.109375 C 4.398438 -4.109375 4.765625 -4.25 5.046875 -4.53125 C 5.335938 -4.820312 5.484375 -5.191406 5.484375 -5.640625 C 5.484375 -6.109375 5.335938 -6.484375 5.046875 -6.765625 C 4.765625 -7.046875 4.398438 -7.1875 3.953125 -7.1875 Z M 1.75 -7.1875 "/></g></g></g><g fill="#050a30" fill-opacity="1"><g transform="translate(193.687217, 278.71898)"><g><path d="M 6.03125 -7.3125 C 6.03125 -7.28125 6.015625 -7.25 5.984375 -7.21875 C 5.960938 -7.195312 5.929688 -7.1875 5.890625 -7.1875 L 1.75 -7.1875 C 1.71875 -7.1875 1.703125 -7.171875 1.703125 -7.140625 L 1.703125 -4.171875 C 1.703125 -4.140625 1.71875 -4.125 1.75 -4.125 L 4.6875 -4.125 C 4.71875 -4.125 4.742188 -4.109375 4.765625 -4.078125 C 4.796875 -4.054688 4.8125 -4.03125 4.8125 -4 L 4.8125 -3.734375 C 4.8125 -3.703125 4.796875 -3.671875 4.765625 -3.640625 C 4.742188 -3.617188 4.71875 -3.609375 4.6875 -3.609375 L 1.75 -3.609375 C 1.71875 -3.609375 1.703125 -3.59375 1.703125 -3.5625 L 1.703125 -0.5625 C 1.703125 -0.53125 1.71875 -0.515625 1.75 -0.515625 L 5.890625 -0.515625 C 5.929688 -0.515625 5.960938 -0.5 5.984375 -0.46875 C 6.015625 -0.445312 6.03125 -0.421875 6.03125 -0.390625 L 6.03125 -0.125 C 6.03125 -0.09375 6.015625 -0.0625 5.984375 -0.03125 C 5.960938 -0.0078125 5.929688 0 5.890625 0 L 1.25 0 C 1.21875 0 1.1875 -0.0078125 1.15625 -0.03125 C 1.132812 -0.0625 1.125 -0.09375 1.125 -0.125 L 1.125 -7.5625 C 1.125 -7.601562 1.132812 -7.632812 1.15625 -7.65625 C 1.1875 -7.6875 1.21875 -7.703125 1.25 -7.703125 L 5.890625 -7.703125 C 5.929688 -7.703125 5.960938 -7.6875 5.984375 -7.65625 C 6.015625 -7.632812 6.03125 -7.601562 6.03125 -7.5625 Z M 6.03125 -7.3125 "/></g></g></g><g fill="#050a30" fill-opacity="1"><g transform="translate(200.447471, 278.71898)"><g><path d="M 1.25 0 C 1.21875 0 1.1875 -0.0078125 1.15625 -0.03125 C 1.132812 -0.0625 1.125 -0.09375 1.125 -0.125 L 1.125 -7.5625 C 1.125 -7.601562 1.132812 -7.632812 1.15625 -7.65625 C 1.1875 -7.6875 1.21875 -7.703125 1.25 -7.703125 L 1.578125 -7.703125 C 1.648438 -7.703125 1.703125 -7.671875 1.734375 -7.609375 L 5.6875 -1.203125 C 5.695312 -1.179688 5.707031 -1.171875 5.71875 -1.171875 C 5.726562 -1.179688 5.734375 -1.195312 5.734375 -1.21875 L 5.734375 -7.5625 C 5.734375 -7.601562 5.742188 -7.632812 5.765625 -7.65625 C 5.796875 -7.6875 5.832031 -7.703125 5.875 -7.703125 L 6.1875 -7.703125 C 6.226562 -7.703125 6.257812 -7.6875 6.28125 -7.65625 C 6.3125 -7.632812 6.328125 -7.601562 6.328125 -7.5625 L 6.328125 -0.125 C 6.328125 -0.09375 6.3125 -0.0625 6.28125 -0.03125 C 6.257812 -0.0078125 6.226562 0 6.1875 0 L 5.859375 0 C 5.785156 0 5.734375 -0.03125 5.703125 -0.09375 L 1.765625 -6.5 C 1.753906 -6.519531 1.738281 -6.523438 1.71875 -6.515625 C 1.707031 -6.515625 1.703125 -6.503906 1.703125 -6.484375 L 1.703125 -0.125 C 1.703125 -0.09375 1.6875 -0.0625 1.65625 -0.03125 C 1.632812 -0.0078125 1.609375 0 1.578125 0 Z M 1.25 0 "/></g></g></g><g fill="#050a30" fill-opacity="1"><g transform="translate(207.933211, 278.71898)"><g><path d="M 5.5625 -7.703125 C 5.601562 -7.703125 5.632812 -7.6875 5.65625 -7.65625 C 5.6875 -7.632812 5.703125 -7.601562 5.703125 -7.5625 L 5.703125 -7.3125 C 5.703125 -7.28125 5.6875 -7.25 5.65625 -7.21875 C 5.632812 -7.195312 5.601562 -7.1875 5.5625 -7.1875 L 3.390625 -7.1875 C 3.359375 -7.1875 3.34375 -7.171875 3.34375 -7.140625 L 3.34375 -0.125 C 3.34375 -0.09375 3.328125 -0.0625 3.296875 -0.03125 C 3.273438 -0.0078125 3.25 0 3.21875 0 L 2.890625 0 C 2.859375 0 2.828125 -0.0078125 2.796875 -0.03125 C 2.773438 -0.0625 2.765625 -0.09375 2.765625 -0.125 L 2.765625 -7.140625 C 2.765625 -7.171875 2.75 -7.1875 2.71875 -7.1875 L 0.65625 -7.1875 C 0.613281 -7.1875 0.578125 -7.195312 0.546875 -7.21875 C 0.523438 -7.25 0.515625 -7.28125 0.515625 -7.3125 L 0.515625 -7.5625 C 0.515625 -7.601562 0.523438 -7.632812 0.546875 -7.65625 C 0.578125 -7.6875 0.613281 -7.703125 0.65625 -7.703125 Z M 5.5625 -7.703125 "/></g></g></g><g fill="#050a30" fill-opacity="1"><g transform="translate(214.187819, 278.71898)"><g><path d="M 5.625 0 C 5.550781 0 5.503906 -0.0351562 5.484375 -0.109375 L 5 -1.546875 C 5 -1.566406 4.988281 -1.578125 4.96875 -1.578125 L 1.53125 -1.578125 C 1.507812 -1.578125 1.492188 -1.566406 1.484375 -1.546875 L 1.015625 -0.109375 C 0.992188 -0.0351562 0.945312 0 0.875 0 L 0.53125 0 C 0.488281 0 0.453125 -0.0078125 0.421875 -0.03125 C 0.398438 -0.0625 0.398438 -0.101562 0.421875 -0.15625 L 2.859375 -7.59375 C 2.878906 -7.664062 2.925781 -7.703125 3 -7.703125 L 3.46875 -7.703125 C 3.550781 -7.703125 3.601562 -7.664062 3.625 -7.59375 L 6.078125 -0.15625 C 6.078125 -0.132812 6.078125 -0.113281 6.078125 -0.09375 C 6.078125 -0.03125 6.039062 0 5.96875 0 Z M 1.65625 -2.125 C 1.65625 -2.101562 1.660156 -2.085938 1.671875 -2.078125 C 1.679688 -2.066406 1.691406 -2.0625 1.703125 -2.0625 L 4.78125 -2.0625 C 4.800781 -2.0625 4.816406 -2.066406 4.828125 -2.078125 C 4.835938 -2.085938 4.835938 -2.101562 4.828125 -2.125 L 3.265625 -6.9375 C 3.253906 -6.957031 3.242188 -6.96875 3.234375 -6.96875 C 3.222656 -6.96875 3.210938 -6.957031 3.203125 -6.9375 Z M 1.65625 -2.125 "/></g></g></g><g fill="#050a30" fill-opacity="1"><g transform="translate(220.717233, 278.71898)"><g><path d="M 1.25 0 C 1.21875 0 1.1875 -0.0078125 1.15625 -0.03125 C 1.132812 -0.0625 1.125 -0.09375 1.125 -0.125 L 1.125 -7.5625 C 1.125 -7.601562 1.132812 -7.632812 1.15625 -7.65625 C 1.1875 -7.6875 1.21875 -7.703125 1.25 -7.703125 L 1.578125 -7.703125 C 1.609375 -7.703125 1.632812 -7.6875 1.65625 -7.65625 C 1.6875 -7.632812 1.703125 -7.601562 1.703125 -7.5625 L 1.703125 -0.5625 C 1.703125 -0.53125 1.71875 -0.515625 1.75 -0.515625 L 5.671875 -0.515625 C 5.710938 -0.515625 5.742188 -0.5 5.765625 -0.46875 C 5.796875 -0.445312 5.8125 -0.421875 5.8125 -0.390625 L 5.8125 -0.125 C 5.8125 -0.09375 5.796875 -0.0625 5.765625 -0.03125 C 5.742188 -0.0078125 5.710938 0 5.671875 0 Z M 1.25 0 "/></g></g></g><g fill="#050a30" fill-opacity="1"><g transform="translate(226.993825, 278.71898)"><g><path d="M 3.265625 0.09375 C 2.472656 0.09375 1.84375 -0.0859375 1.375 -0.453125 C 0.914062 -0.816406 0.6875 -1.300781 0.6875 -1.90625 L 0.6875 -2.25 C 0.6875 -2.289062 0.695312 -2.320312 0.71875 -2.34375 C 0.75 -2.375 0.78125 -2.390625 0.8125 -2.390625 L 1.109375 -2.390625 C 1.148438 -2.390625 1.179688 -2.375 1.203125 -2.34375 C 1.234375 -2.320312 1.25 -2.289062 1.25 -2.25 L 1.25 -1.953125 C 1.25 -1.492188 1.429688 -1.125 1.796875 -0.84375 C 2.171875 -0.5625 2.679688 -0.421875 3.328125 -0.421875 C 3.929688 -0.421875 4.390625 -0.546875 4.703125 -0.796875 C 5.023438 -1.054688 5.1875 -1.410156 5.1875 -1.859375 C 5.1875 -2.128906 5.117188 -2.363281 4.984375 -2.5625 C 4.847656 -2.769531 4.628906 -2.960938 4.328125 -3.140625 C 4.023438 -3.316406 3.601562 -3.515625 3.0625 -3.734375 C 2.5 -3.984375 2.066406 -4.1875 1.765625 -4.34375 C 1.472656 -4.507812 1.238281 -4.710938 1.0625 -4.953125 C 0.882812 -5.203125 0.796875 -5.519531 0.796875 -5.90625 C 0.796875 -6.507812 1.003906 -6.972656 1.421875 -7.296875 C 1.835938 -7.617188 2.410156 -7.78125 3.140625 -7.78125 C 3.953125 -7.78125 4.582031 -7.597656 5.03125 -7.234375 C 5.476562 -6.867188 5.703125 -6.378906 5.703125 -5.765625 L 5.703125 -5.53125 C 5.703125 -5.5 5.6875 -5.46875 5.65625 -5.4375 C 5.632812 -5.414062 5.609375 -5.40625 5.578125 -5.40625 L 5.265625 -5.40625 C 5.222656 -5.40625 5.1875 -5.414062 5.15625 -5.4375 C 5.132812 -5.46875 5.125 -5.5 5.125 -5.53125 L 5.125 -5.734375 C 5.125 -6.191406 4.945312 -6.5625 4.59375 -6.84375 C 4.238281 -7.125 3.742188 -7.265625 3.109375 -7.265625 C 2.554688 -7.265625 2.128906 -7.148438 1.828125 -6.921875 C 1.523438 -6.691406 1.375 -6.359375 1.375 -5.921875 C 1.375 -5.628906 1.441406 -5.390625 1.578125 -5.203125 C 1.722656 -5.023438 1.925781 -4.867188 2.1875 -4.734375 C 2.445312 -4.597656 2.847656 -4.421875 3.390625 -4.203125 C 3.929688 -3.984375 4.367188 -3.769531 4.703125 -3.5625 C 5.035156 -3.363281 5.296875 -3.128906 5.484375 -2.859375 C 5.679688 -2.585938 5.78125 -2.257812 5.78125 -1.875 C 5.78125 -1.28125 5.554688 -0.800781 5.109375 -0.4375 C 4.671875 -0.0820312 4.054688 0.09375 3.265625 0.09375 Z M 3.265625 0.09375 "/></g></g></g></svg>